<svg width="22" height="23" viewBox="0 0 22 23" fill="none" xmlns="http://www.w3.org/2000/svg">
<g id="email">
<path id="Vector" d="M18.363 18.8289H3.63672C2.86207 18.8279 2.11941 18.5198 1.57165 17.9721C1.02389 17.4243 0.715753 16.6816 0.714844 15.907V7.09323C0.715753 6.31858 1.02389 5.57592 1.57165 5.02816C2.11941 4.4804 2.86207 4.17227 3.63672 4.17136H18.363C19.1376 4.17227 19.8803 4.4804 20.428 5.02816C20.9758 5.57592 21.2839 6.31858 21.2848 7.09323V15.907C21.2839 16.6816 20.9758 17.4243 20.428 17.9721C19.8803 18.5198 19.1376 18.8279 18.363 18.8289ZM3.63672 5.20261C3.13529 5.20261 2.65441 5.4018 2.29984 5.75636C1.94528 6.11092 1.74609 6.59181 1.74609 7.09323V15.907C1.74609 16.4084 1.94528 16.8893 2.29984 17.2439C2.65441 17.5984 3.13529 17.7976 3.63672 17.7976H18.363C18.8644 17.7976 19.3453 17.5984 19.6998 17.2439C20.0544 16.8893 20.2536 16.4084 20.2536 15.907V7.09323C20.2536 6.59181 20.0544 6.11092 19.6998 5.75636C19.3453 5.4018 18.8644 5.20261 18.363 5.20261H3.63672Z" fill="#0DB0F4"/>
<path id="Vector_2" d="M11.0001 13.59C10.364 13.5909 9.74497 13.3846 9.2367 13.0021L1.21014 6.93151C1.15343 6.89171 1.10532 6.84089 1.06869 6.78208C1.03205 6.72327 1.00765 6.65768 0.996931 6.58923C0.986212 6.52078 0.989398 6.45087 1.0063 6.38368C1.0232 6.31649 1.05347 6.2534 1.0953 6.19816C1.13713 6.14293 1.18966 6.09669 1.24975 6.06221C1.30985 6.02774 1.37628 6.00572 1.44507 5.99749C1.51387 5.98926 1.58361 5.99497 1.65015 6.01429C1.71668 6.03362 1.77864 6.06615 1.83233 6.10995L9.85889 12.1875C10.1885 12.4335 10.5888 12.5664 11.0001 12.5664C11.4115 12.5664 11.8118 12.4335 12.1414 12.1875L20.1679 6.10995C20.2216 6.06615 20.2836 6.03362 20.3501 6.01429C20.4167 5.99497 20.4864 5.98926 20.5552 5.99749C20.624 6.00572 20.6904 6.02774 20.7505 6.06221C20.8106 6.09669 20.8631 6.14293 20.905 6.19816C20.9468 6.2534 20.9771 6.31649 20.994 6.38368C21.0109 6.45087 21.0141 6.52078 21.0033 6.58923C20.9926 6.65768 20.9682 6.72327 20.9316 6.78208C20.895 6.84089 20.8468 6.89171 20.7901 6.93151L12.7636 13.0021C12.2553 13.3846 11.6362 13.5909 11.0001 13.59Z" fill="#0DB0F4"/>
<path id="Vector_3" d="M1.43338 17.3919C1.3288 17.392 1.22664 17.3604 1.14047 17.3011C1.0543 17.2419 0.98818 17.1578 0.950889 17.0601C0.913597 16.9624 0.906896 16.8557 0.931675 16.7541C0.956453 16.6525 1.01154 16.5608 1.08963 16.4912L7.41462 10.8503C7.51673 10.7591 7.65088 10.7123 7.78754 10.72C7.92421 10.7277 8.05221 10.7894 8.14337 10.8916C8.23454 10.9937 8.28141 11.1278 8.27368 11.2645C8.26594 11.4011 8.20423 11.5291 8.10212 11.6203L1.77712 17.2612C1.68319 17.3467 1.56036 17.3934 1.43338 17.3919ZM20.5665 17.3919C20.4395 17.3934 20.3167 17.3467 20.2227 17.2612L13.8977 11.6203C13.7956 11.5291 13.7339 11.4011 13.7262 11.2645C13.7185 11.1278 13.7653 10.9937 13.8565 10.8916C13.9477 10.7894 14.0757 10.7277 14.2123 10.72C14.349 10.7123 14.4831 10.7591 14.5852 10.8503L20.9068 16.4912C20.9849 16.5608 21.04 16.6525 21.0648 16.7541C21.0895 16.8557 21.0828 16.9624 21.0455 17.0601C21.0083 17.1578 20.9421 17.2419 20.856 17.3011C20.7698 17.3604 20.6676 17.392 20.5631 17.3919H20.5665Z" fill="#0DB0F4"/>
</g>
</svg>
