<svg width="24" height="24" viewBox="0 0 24 24" fill="none" xmlns="http://www.w3.org/2000/svg">
<g id="pickup">
<path id="Vector" d="M15 5H17.0906C17.9358 5 18.6898 5.53134 18.974 6.32733L21 12V16C21 16.5523 20.5523 17 20 17H19M15 5H13C12.4477 5 12 5.44772 12 6V11H4C3.44772 11 3 11.4477 3 12V17H5M15 5V10C15 10.5523 15.4477 11 16 11H20.6429M19 17C19 18.1046 18.1046 19 17 19C15.8954 19 15 18.1046 15 17M19 17C19 15.8954 18.1046 15 17 15C15.8954 15 15 15.8954 15 17M5 17C5 18.1046 5.89543 19 7 19C8.10457 19 9 18.1046 9 17M5 17C5 15.8954 5.89543 15 7 15C8.10457 15 9 15.8954 9 17M9 17H15" stroke="#004968" stroke-linecap="round" stroke-linejoin="round"/>
</g>
</svg>
